<?xml version="1.0" encoding="UTF-8"?>
<svg id="Layer_1" data-name="Layer 1" xmlns="http://www.w3.org/2000/svg" xmlns:xlink="http://www.w3.org/1999/xlink" viewBox="0 0 252 131.15">
  <defs>
    <style>
      .cls-1 {
        stroke: #babcbe;
      }

      .cls-1, .cls-2, .cls-3, .cls-4, .cls-5 {
        fill: none;
      }

      .cls-1, .cls-2, .cls-4 {
        stroke-width: .8px;
      }

      .cls-1, .cls-2, .cls-5 {
        stroke-linejoin: round;
      }

      .cls-1, .cls-4 {
        stroke-linecap: square;
      }

      .cls-6 {
        clip-path: url(#clippath-6);
      }

      .cls-7 {
        clip-path: url(#clippath-7);
      }

      .cls-8 {
        clip-path: url(#clippath-4);
      }

      .cls-9 {
        fill: #855c54;
      }

      .cls-2, .cls-4 {
        stroke: #231f20;
      }

      .cls-2, .cls-5 {
        stroke-linecap: round;
      }

      .cls-10 {
        clip-path: url(#clippath-9);
      }

      .cls-11 {
        fill: #010101;
      }

      .cls-11, .cls-12, .cls-13 {
        font-family: TimesNewRomanPSMT, 'Times New Roman';
      }

      .cls-11, .cls-13 {
        font-size: 9px;
      }

      .cls-14 {
        clip-path: url(#clippath-1);
      }

      .cls-4 {
        stroke-miterlimit: 10;
      }

      .cls-15 {
        clip-path: url(#clippath-5);
      }

      .cls-16 {
        clip-path: url(#clippath-8);
      }

      .cls-5 {
        stroke: #656668;
      }

      .cls-17 {
        clip-path: url(#clippath-3);
      }

      .cls-18 {
        opacity: .3;
      }

      .cls-19 {
        fill: #9373b3;
      }

      .cls-12 {
        font-size: 8px;
      }

      .cls-12, .cls-13 {
        fill: #231f20;
      }

      .cls-20 {
        clip-path: url(#clippath-2);
      }

      .cls-21 {
        fill: #e1822c;
      }

      .cls-22 {
        fill: #3b9144;
      }

      .cls-23 {
        fill: #c13e3f;
      }

      .cls-24 {
        clip-path: url(#clippath);
      }

      .cls-25 {
        fill: #3375a2;
      }
    </style>
    <clipPath id="clippath">
      <rect class="cls-3" y="0" width="252" height="131.15"/>
    </clipPath>
    <clipPath id="clippath-1">
      <rect class="cls-3" y="0" width="252" height="131.15"/>
    </clipPath>
    <clipPath id="clippath-2">
      <rect class="cls-3" x="19.37" y="86.83" width="232.31" height=".8"/>
    </clipPath>
    <clipPath id="clippath-3">
      <rect class="cls-3" x="19.37" y="60.39" width="232.31" height=".8"/>
    </clipPath>
    <clipPath id="clippath-4">
      <rect class="cls-3" x="19.37" y="33.95" width="232.31" height=".8"/>
    </clipPath>
    <clipPath id="clippath-5">
      <rect class="cls-3" x="19.37" y="7.5" width="232.31" height=".8"/>
    </clipPath>
    <clipPath id="clippath-6">
      <rect class="cls-3" x="19.77" width="231.51" height="111.03"/>
    </clipPath>
    <clipPath id="clippath-7">
      <rect class="cls-3" y="0" width="252" height="131.15"/>
    </clipPath>
    <clipPath id="clippath-8">
      <rect class="cls-3" y="0" width="252" height="131.15"/>
    </clipPath>
    <clipPath id="clippath-9">
      <rect class="cls-3" y="0" width="252" height="131.15"/>
    </clipPath>
  </defs>
  <g class="cls-24">
    <g class="cls-14">
      <g class="cls-18">
        <g class="cls-20">
          <line class="cls-1" x1="19.77" y1="87.23" x2="251.28" y2="87.23"/>
        </g>
      </g>
      <g class="cls-18">
        <g class="cls-17">
          <line class="cls-1" x1="19.77" y1="60.79" x2="251.28" y2="60.79"/>
        </g>
      </g>
      <g class="cls-18">
        <g class="cls-8">
          <line class="cls-1" x1="19.77" y1="34.35" x2="251.28" y2="34.35"/>
        </g>
      </g>
      <g class="cls-18">
        <g class="cls-15">
          <line class="cls-1" x1="19.77" y1="7.9" x2="251.28" y2="7.9"/>
        </g>
      </g>
    </g>
    <rect class="cls-25" x="23.63" y="85.71" width="30.87" height="25.32"/>
    <rect class="cls-21" x="62.21" y="85.18" width="30.87" height="25.85"/>
    <rect class="cls-22" x="100.8" y="84.58" width="30.87" height="26.44"/>
    <rect class="cls-23" x="139.38" y="83.06" width="30.87" height="27.96"/>
    <rect class="cls-19" x="177.97" y="75.92" width="30.87" height="35.1"/>
    <rect class="cls-9" x="216.56" y="59.73" width="30.87" height="51.3"/>
    <line class="cls-2" x1="39.06" y1="111.03" x2="39.06" y2="112.23"/>
    <line class="cls-2" x1="77.65" y1="111.03" x2="77.65" y2="112.23"/>
    <line class="cls-2" x1="116.23" y1="111.03" x2="116.23" y2="112.23"/>
    <line class="cls-2" x1="154.82" y1="111.03" x2="154.82" y2="112.23"/>
    <line class="cls-2" x1="193.4" y1="111.03" x2="193.4" y2="112.23"/>
    <line class="cls-2" x1="231.99" y1="111.03" x2="231.99" y2="112.23"/>
    <line class="cls-2" x1="19.77" y1="87.23" x2="18.56" y2="87.23"/>
    <line class="cls-2" x1="19.77" y1="60.79" x2="18.56" y2="60.79"/>
    <line class="cls-2" x1="19.77" y1="34.35" x2="18.56" y2="34.35"/>
    <line class="cls-2" x1="19.77" y1="7.9" x2="18.56" y2="7.9"/>
    <path class="cls-5" d="M37.13,78.74h3.86M39.06,92.67v-13.93M37.13,92.67h3.86"/>
    <path class="cls-5" d="M75.72,76.75h3.86M77.65,93.61v-16.87M75.72,93.61h3.86"/>
    <path class="cls-5" d="M114.3,74.68h3.86M116.23,94.49v-19.81M114.3,94.49h3.86"/>
    <path class="cls-5" d="M152.89,71.44h3.86M154.82,94.69v-23.24M152.89,94.69h3.86"/>
    <path class="cls-5" d="M191.48,51.66h3.86M193.4,100.19v-48.52M191.48,100.19h3.86"/>
    <g class="cls-6">
      <path class="cls-5" d="M230.06,5.58h3.86M231.99,113.88V5.58M230.06,113.88h3.86"/>
    </g>
    <line class="cls-4" x1="19.77" y1="111.03" x2="19.77" y2="1.46"/>
    <g class="cls-7">
      <line class="cls-4" x1="251.28" y1="111.03" x2="251.28" y2="1.46"/>
      <line class="cls-4" x1="19.77" y1="111.03" x2="251.28" y2="111.03"/>
      <line class="cls-4" x1="19.77" y1="1.46" x2="251.28" y2="1.46"/>
    </g>
    <text class="cls-12" transform="translate(36.81 119.78)"><tspan x="0" y="0">1</tspan></text>
    <text class="cls-12" transform="translate(75.4 119.78)"><tspan x="0" y="0">2</tspan></text>
    <text class="cls-12" transform="translate(113.98 119.78)"><tspan x="0" y="0">3</tspan></text>
    <text class="cls-12" transform="translate(152.57 119.78)"><tspan x="0" y="0">4</tspan></text>
    <text class="cls-12" transform="translate(191.15 119.78)"><tspan x="0" y="0">5</tspan></text>
    <text class="cls-12" transform="translate(229.73 119.78)"><tspan x="0" y="0">6</tspan></text>
    <text class="cls-13" transform="translate(12.02 89.59)"><tspan x="0" y="0">1</tspan></text>
    <g class="cls-16">
      <text class="cls-13" transform="translate(7.81 76.33) rotate(-90)"><tspan x="0" y="0">number of retries</tspan></text>
    </g>
    <text class="cls-13" transform="translate(11.77 63.23)"><tspan x="0" y="0">2</tspan></text>
    <text class="cls-13" transform="translate(11.77 36.87)"><tspan x="0" y="0">3</tspan></text>
    <text class="cls-13" transform="translate(12.82 10.51)"><tspan x="0" y="0">4</tspan></text>
    <g class="cls-10">
      <text class="cls-11" transform="translate(105.66 128.1)"><tspan x="0" y="0">complexity level</tspan></text>
    </g>
  </g>
</svg>