<?xml version="1.0" encoding="UTF-8"?>
<svg id="Layer_1" data-name="Layer 1" xmlns="http://www.w3.org/2000/svg" xmlns:xlink="http://www.w3.org/1999/xlink" viewBox="0 0 252 165.33">
  <defs>
    <style>
      .cls-1 {
        fill: #9fbbe2;
      }

      .cls-2 {
        clip-path: url(#clippath-21);
      }

      .cls-3 {
        clip-path: url(#clippath-6);
      }

      .cls-4 {
        clip-path: url(#clippath-7);
      }

      .cls-5 {
        clip-path: url(#clippath-17);
      }

      .cls-6 {
        clip-path: url(#clippath-31);
      }

      .cls-7 {
        clip-path: url(#clippath-15);
      }

      .cls-8 {
        clip-path: url(#clippath-18);
      }

      .cls-9 {
        clip-path: url(#clippath-4);
      }

      .cls-10 {
        clip-path: url(#clippath-22);
      }

      .cls-11 {
        stroke: #ea9791;
      }

      .cls-11, .cls-12, .cls-13, .cls-14, .cls-15, .cls-16, .cls-17, .cls-18 {
        fill: none;
      }

      .cls-11, .cls-12, .cls-13, .cls-15, .cls-17, .cls-18 {
        stroke-linejoin: round;
      }

      .cls-11, .cls-13, .cls-15, .cls-17, .cls-18 {
        stroke-linecap: round;
      }

      .cls-19 {
        clip-path: url(#clippath-23);
      }

      .cls-12 {
        stroke: #fff;
        stroke-width: .75px;
      }

      .cls-20 {
        font-size: 8px;
      }

      .cls-20, .cls-21 {
        fill: #010101;
      }

      .cls-20, .cls-21, .cls-22, .cls-23 {
        font-family: TimesNewRomanPSMT, 'Times New Roman';
      }

      .cls-24 {
        clip-path: url(#clippath-9);
      }

      .cls-25 {
        clip-path: url(#clippath-10);
      }

      .cls-13 {
        stroke: #9fbbe2;
      }

      .cls-26 {
        clip-path: url(#clippath-25);
      }

      .cls-27 {
        clip-path: url(#clippath-27);
      }

      .cls-28 {
        clip-path: url(#clippath-11);
      }

      .cls-21, .cls-22, .cls-23 {
        font-size: 9px;
      }

      .cls-29 {
        clip-path: url(#clippath-28);
      }

      .cls-30 {
        fill: #ea9791;
      }

      .cls-15, .cls-16 {
        stroke: #d1d3d4;
        stroke-width: .8px;
      }

      .cls-31 {
        clip-path: url(#clippath-1);
      }

      .cls-32 {
        clip-path: url(#clippath-5);
      }

      .cls-33 {
        clip-path: url(#clippath-20);
      }

      .cls-16 {
        stroke-linecap: square;
        stroke-miterlimit: 10;
      }

      .cls-34 {
        clip-path: url(#clippath-8);
      }

      .cls-35 {
        clip-path: url(#clippath-3);
      }

      .cls-36 {
        clip-path: url(#clippath-26);
      }

      .cls-17 {
        stroke: #6ea87e;
      }

      .cls-37 {
        clip-path: url(#clippath-12);
      }

      .cls-38 {
        clip-path: url(#clippath-14);
      }

      .cls-39 {
        fill: #6ea87e;
      }

      .cls-40 {
        clip-path: url(#clippath-30);
      }

      .cls-41 {
        clip-path: url(#clippath-19);
      }

      .cls-22 {
        fill: #020201;
      }

      .cls-42 {
        fill: #fbdc7e;
      }

      .cls-43 {
        clip-path: url(#clippath-16);
      }

      .cls-44 {
        clip-path: url(#clippath-2);
      }

      .cls-45 {
        clip-path: url(#clippath-29);
      }

      .cls-46 {
        fill: #e1822c;
      }

      .cls-47 {
        fill: #3b9144;
      }

      .cls-48 {
        clip-path: url(#clippath-13);
      }

      .cls-49 {
        clip-path: url(#clippath-24);
      }

      .cls-50 {
        fill: #c13e3f;
      }

      .cls-18 {
        stroke: #fbdc7e;
      }

      .cls-51 {
        clip-path: url(#clippath);
      }

      .cls-52 {
        fill: #3375a2;
      }

      .cls-23 {
        fill: #231f20;
      }
    </style>
    <clipPath id="clippath">
      <rect class="cls-14" x="25.41" y="12.15" width="224.11" height="131.89"/>
    </clipPath>
    <clipPath id="clippath-1">
      <rect class="cls-14" x="25.41" y="12.15" width="224.11" height="131.89"/>
    </clipPath>
    <clipPath id="clippath-2">
      <rect class="cls-14" x="45.92" y="121.33" width="5.37" height="5.37"/>
    </clipPath>
    <clipPath id="clippath-3">
      <rect class="cls-14" x="82.46" y="141.36" width="5.37" height="2.68"/>
    </clipPath>
    <clipPath id="clippath-4">
      <rect class="cls-14" x="119" y="141.36" width="5.37" height="2.68"/>
    </clipPath>
    <clipPath id="clippath-5">
      <rect class="cls-14" x="155.55" y="141.36" width="5.37" height="2.68"/>
    </clipPath>
    <clipPath id="clippath-6">
      <rect class="cls-14" x="192.09" y="141.36" width="5.37" height="2.68"/>
    </clipPath>
    <clipPath id="clippath-7">
      <rect class="cls-14" x="228.63" y="141.36" width="5.37" height="2.68"/>
    </clipPath>
    <clipPath id="clippath-8">
      <rect class="cls-14" x="25.41" y="12.15" width="224.11" height="131.89"/>
    </clipPath>
    <clipPath id="clippath-9">
      <rect class="cls-14" x="45.92" y="84.85" width="5.37" height="5.37"/>
    </clipPath>
    <clipPath id="clippath-10">
      <rect class="cls-14" x="82.46" y="133.98" width="5.37" height="5.37"/>
    </clipPath>
    <clipPath id="clippath-11">
      <rect class="cls-14" x="119" y="140.1" width="5.37" height="3.94"/>
    </clipPath>
    <clipPath id="clippath-12">
      <rect class="cls-14" x="155.55" y="141.36" width="5.37" height="2.68"/>
    </clipPath>
    <clipPath id="clippath-13">
      <rect class="cls-14" x="192.09" y="141.36" width="5.37" height="2.68"/>
    </clipPath>
    <clipPath id="clippath-14">
      <rect class="cls-14" x="228.63" y="141.36" width="5.37" height="2.68"/>
    </clipPath>
    <clipPath id="clippath-15">
      <rect class="cls-14" x="29.75" y="12.15" width="219.77" height="131.89"/>
    </clipPath>
    <clipPath id="clippath-16">
      <rect class="cls-14" x="45.92" y="16.37" width="5.37" height="5.37"/>
    </clipPath>
    <clipPath id="clippath-17">
      <rect class="cls-14" x="82.46" y="83.95" width="5.37" height="5.37"/>
    </clipPath>
    <clipPath id="clippath-18">
      <rect class="cls-14" x="119" y="127.9" width="5.37" height="5.37"/>
    </clipPath>
    <clipPath id="clippath-19">
      <rect class="cls-14" x="155.55" y="140.1" width="5.37" height="3.94"/>
    </clipPath>
    <clipPath id="clippath-20">
      <rect class="cls-14" x="192.09" y="141.36" width="5.37" height="2.68"/>
    </clipPath>
    <clipPath id="clippath-21">
      <rect class="cls-14" x="228.63" y="141.36" width="5.37" height="2.68"/>
    </clipPath>
    <clipPath id="clippath-22">
      <rect class="cls-14" x="45.92" y="15.75" width="5.37" height="5.37"/>
    </clipPath>
    <clipPath id="clippath-23">
      <rect class="cls-14" x="82.46" y="15.75" width="5.37" height="5.37"/>
    </clipPath>
    <clipPath id="clippath-24">
      <rect class="cls-14" x="119" y="15.75" width="5.37" height="5.37"/>
    </clipPath>
    <clipPath id="clippath-25">
      <rect class="cls-14" x="155.55" y="15.75" width="5.37" height="5.37"/>
    </clipPath>
    <clipPath id="clippath-26">
      <rect class="cls-14" x="192.09" y="15.75" width="5.37" height="5.37"/>
    </clipPath>
    <clipPath id="clippath-27">
      <rect class="cls-14" x="228.63" y="15.75" width="5.37" height="5.37"/>
    </clipPath>
    <clipPath id="clippath-28">
      <rect class="cls-14" width="252" height="165.33"/>
    </clipPath>
    <clipPath id="clippath-29">
      <rect class="cls-14" width="252" height="165.33"/>
    </clipPath>
    <clipPath id="clippath-30">
      <rect class="cls-14" width="252" height="165.33"/>
    </clipPath>
    <clipPath id="clippath-31">
      <rect class="cls-14" width="252" height="165.33"/>
    </clipPath>
  </defs>
  <g class="cls-51">
    <line class="cls-15" x1="48.61" y1="144.04" x2="48.61" y2="12.15"/>
    <line class="cls-15" x1="85.15" y1="144.04" x2="85.15" y2="12.15"/>
    <line class="cls-15" x1="121.69" y1="144.04" x2="121.69" y2="12.15"/>
    <line class="cls-15" x1="158.23" y1="144.04" x2="158.23" y2="12.15"/>
    <line class="cls-15" x1="194.77" y1="144.04" x2="194.77" y2="12.15"/>
    <line class="cls-15" x1="231.31" y1="144.04" x2="231.31" y2="12.15"/>
    <line class="cls-15" x1="30.4" y1="118.92" x2="249.52" y2="118.92"/>
    <line class="cls-15" x1="30.4" y1="93.8" x2="249.52" y2="93.8"/>
    <line class="cls-15" x1="30.4" y1="68.68" x2="249.52" y2="68.68"/>
    <line class="cls-15" x1="30.4" y1="43.56" x2="249.52" y2="43.56"/>
    <line class="cls-15" x1="30.4" y1="18.43" x2="249.52" y2="18.43"/>
  </g>
  <rect class="cls-52" x="35.82" y="18.43" width="25.58" height="125.61"/>
  <rect class="cls-52" x="72.36" y="18.43" width="25.58" height="125.61"/>
  <rect class="cls-52" x="108.9" y="18.43" width="25.58" height="125.61"/>
  <rect class="cls-52" x="145.44" y="18.43" width="25.58" height="125.61"/>
  <rect class="cls-52" x="181.98" y="18.43" width="25.58" height="125.61"/>
  <rect class="cls-52" x="218.52" y="18.43" width="25.58" height="125.61"/>
  <rect class="cls-50" x="35.82" y="19.05" width="25.58" height="124.99"/>
  <rect class="cls-50" x="72.36" y="86.64" width="25.58" height="57.41"/>
  <rect class="cls-50" x="108.9" y="130.58" width="25.58" height="13.46"/>
  <rect class="cls-50" x="145.44" y="142.79" width="25.58" height="1.26"/>
  <rect class="cls-46" x="35.82" y="87.53" width="25.58" height="56.51"/>
  <rect class="cls-46" x="72.36" y="136.66" width="25.58" height="7.38"/>
  <rect class="cls-46" x="108.9" y="142.79" width="25.58" height="1.26"/>
  <rect class="cls-47" x="35.82" y="124.02" width="25.58" height="20.03"/>
  <g class="cls-31">
    <polyline class="cls-17" points="48.61 124.01 85.15 144.04 121.69 144.04 158.23 144.04 194.77 144.04 231.31 144.04"/>
  </g>
  <g class="cls-44">
    <path class="cls-39" d="M48.61,125.4c.37,0,.72-.15.98-.41.26-.26.41-.61.41-.98s-.15-.72-.41-.98-.61-.41-.98-.41-.72.15-.98.41-.41.61-.41.98.15.72.41.98c.26.26.61.41.98.41"/>
    <path class="cls-12" d="M48.61,125.4c.37,0,.72-.15.98-.41.26-.26.41-.61.41-.98s-.15-.72-.41-.98-.61-.41-.98-.41-.72.15-.98.41-.41.61-.41.98.15.72.41.98c.26.26.61.41.98.41Z"/>
  </g>
  <g class="cls-35">
    <path class="cls-39" d="M85.15,145.43c.37,0,.72-.15.98-.41.26-.26.41-.61.41-.98s-.15-.72-.41-.98-.61-.41-.98-.41-.72.15-.98.41-.41.61-.41.98.15.72.41.98c.26.26.61.41.98.41"/>
    <path class="cls-12" d="M85.15,145.43c.37,0,.72-.15.98-.41.26-.26.41-.61.41-.98s-.15-.72-.41-.98-.61-.41-.98-.41-.72.15-.98.41-.41.61-.41.98.15.72.41.98c.26.26.61.41.98.41Z"/>
  </g>
  <g class="cls-9">
    <path class="cls-39" d="M121.69,145.43c.37,0,.72-.15.98-.41.26-.26.41-.61.41-.98s-.15-.72-.41-.98-.61-.41-.98-.41-.72.15-.98.41-.41.61-.41.98.15.72.41.98c.26.26.61.41.98.41"/>
    <path class="cls-12" d="M121.69,145.43c.37,0,.72-.15.98-.41.26-.26.41-.61.41-.98s-.15-.72-.41-.98-.61-.41-.98-.41-.72.15-.98.41-.41.61-.41.98.15.72.41.98c.26.26.61.41.98.41Z"/>
  </g>
  <g class="cls-32">
    <path class="cls-39" d="M158.23,145.43c.37,0,.72-.15.98-.41.26-.26.41-.61.41-.98s-.15-.72-.41-.98c-.26-.26-.61-.41-.98-.41s-.72.15-.98.41c-.26.26-.41.61-.41.98s.15.72.41.98c.26.26.61.41.98.41"/>
    <path class="cls-12" d="M158.23,145.43c.37,0,.72-.15.98-.41.26-.26.41-.61.41-.98s-.15-.72-.41-.98c-.26-.26-.61-.41-.98-.41s-.72.15-.98.41c-.26.26-.41.61-.41.98s.15.72.41.98c.26.26.61.41.98.41Z"/>
  </g>
  <g class="cls-3">
    <path class="cls-39" d="M194.77,145.43c.37,0,.72-.15.98-.41.26-.26.41-.61.41-.98s-.15-.72-.41-.98c-.26-.26-.61-.41-.98-.41s-.72.15-.98.41c-.26.26-.41.61-.41.98s.15.72.41.98c.26.26.61.41.98.41"/>
    <path class="cls-12" d="M194.77,145.43c.37,0,.72-.15.98-.41.26-.26.41-.61.41-.98s-.15-.72-.41-.98c-.26-.26-.61-.41-.98-.41s-.72.15-.98.41c-.26.26-.41.61-.41.98s.15.72.41.98c.26.26.61.41.98.41Z"/>
  </g>
  <g class="cls-4">
    <path class="cls-39" d="M231.31,145.43c.37,0,.72-.15.98-.41.26-.26.41-.61.41-.98s-.15-.72-.41-.98c-.26-.26-.61-.41-.98-.41s-.72.15-.98.41c-.26.26-.41.61-.41.98s.15.72.41.98c.26.26.61.41.98.41"/>
    <path class="cls-12" d="M231.31,145.43c.37,0,.72-.15.98-.41.26-.26.41-.61.41-.98s-.15-.72-.41-.98c-.26-.26-.61-.41-.98-.41s-.72.15-.98.41c-.26.26-.41.61-.41.98s.15.72.41.98c.26.26.61.41.98.41Z"/>
  </g>
  <g class="cls-34">
    <polyline class="cls-18" points="48.61 87.53 85.15 136.66 121.69 142.79 158.23 144.04 194.77 144.04 231.31 144.04"/>
  </g>
  <g class="cls-24">
    <path class="cls-42" d="M48.61,88.92c.37,0,.72-.15.98-.41.26-.26.41-.61.41-.98s-.15-.72-.41-.98c-.26-.26-.61-.41-.98-.41s-.72.15-.98.41c-.26.26-.41.61-.41.98s.15.72.41.98c.26.26.61.41.98.41"/>
    <path class="cls-12" d="M48.61,88.92c.37,0,.72-.15.98-.41.26-.26.41-.61.41-.98s-.15-.72-.41-.98c-.26-.26-.61-.41-.98-.41s-.72.15-.98.41c-.26.26-.41.61-.41.98s.15.72.41.98c.26.26.61.41.98.41Z"/>
  </g>
  <g class="cls-25">
    <path class="cls-42" d="M85.15,138.05c.37,0,.72-.15.98-.41.26-.26.41-.61.41-.98s-.15-.72-.41-.98-.61-.41-.98-.41-.72.15-.98.41-.41.61-.41.98.15.72.41.98c.26.26.61.41.98.41"/>
    <path class="cls-12" d="M85.15,138.05c.37,0,.72-.15.98-.41.26-.26.41-.61.41-.98s-.15-.72-.41-.98-.61-.41-.98-.41-.72.15-.98.41-.41.61-.41.98.15.72.41.98c.26.26.61.41.98.41Z"/>
  </g>
  <g class="cls-28">
    <path class="cls-42" d="M121.69,144.17c.37,0,.72-.15.98-.41.26-.26.41-.61.41-.98s-.15-.72-.41-.98-.61-.41-.98-.41-.72.15-.98.41-.41.61-.41.98.15.72.41.98c.26.26.61.41.98.41"/>
    <path class="cls-12" d="M121.69,144.17c.37,0,.72-.15.98-.41.26-.26.41-.61.41-.98s-.15-.72-.41-.98-.61-.41-.98-.41-.72.15-.98.41-.41.61-.41.98.15.72.41.98c.26.26.61.41.98.41Z"/>
  </g>
  <g class="cls-37">
    <path class="cls-42" d="M158.23,145.43c.37,0,.72-.15.98-.41.26-.26.41-.61.41-.98s-.15-.72-.41-.98c-.26-.26-.61-.41-.98-.41s-.72.15-.98.41c-.26.26-.41.61-.41.98s.15.72.41.98c.26.26.61.41.98.41"/>
    <path class="cls-12" d="M158.23,145.43c.37,0,.72-.15.98-.41.26-.26.41-.61.41-.98s-.15-.72-.41-.98c-.26-.26-.61-.41-.98-.41s-.72.15-.98.41c-.26.26-.41.61-.41.98s.15.72.41.98c.26.26.61.41.98.41Z"/>
  </g>
  <g class="cls-48">
    <path class="cls-42" d="M194.77,145.43c.37,0,.72-.15.98-.41.26-.26.41-.61.41-.98s-.15-.72-.41-.98c-.26-.26-.61-.41-.98-.41s-.72.15-.98.41c-.26.26-.41.61-.41.98s.15.72.41.98c.26.26.61.41.98.41"/>
    <path class="cls-12" d="M194.77,145.43c.37,0,.72-.15.98-.41.26-.26.41-.61.41-.98s-.15-.72-.41-.98c-.26-.26-.61-.41-.98-.41s-.72.15-.98.41c-.26.26-.41.61-.41.98s.15.72.41.98c.26.26.61.41.98.41Z"/>
  </g>
  <g class="cls-38">
    <path class="cls-42" d="M231.31,145.43c.37,0,.72-.15.98-.41.26-.26.41-.61.41-.98s-.15-.72-.41-.98c-.26-.26-.61-.41-.98-.41s-.72.15-.98.41c-.26.26-.41.61-.41.98s.15.72.41.98c.26.26.61.41.98.41"/>
    <path class="cls-12" d="M231.31,145.43c.37,0,.72-.15.98-.41.26-.26.41-.61.41-.98s-.15-.72-.41-.98c-.26-.26-.61-.41-.98-.41s-.72.15-.98.41c-.26.26-.41.61-.41.98s.15.72.41.98c.26.26.61.41.98.41Z"/>
  </g>
  <g class="cls-7">
    <polyline class="cls-11" points="48.61 19.05 85.15 86.63 121.69 130.58 158.23 142.79 194.77 144.04 231.31 144.04"/>
  </g>
  <g class="cls-43">
    <path class="cls-30" d="M48.61,20.44c.37,0,.72-.15.98-.41.26-.26.41-.61.41-.98s-.15-.72-.41-.98c-.26-.26-.61-.41-.98-.41s-.72.15-.98.41c-.26.26-.41.61-.41.98s.15.72.41.98c.26.26.61.41.98.41"/>
    <path class="cls-12" d="M48.61,20.44c.37,0,.72-.15.98-.41.26-.26.41-.61.41-.98s-.15-.72-.41-.98c-.26-.26-.61-.41-.98-.41s-.72.15-.98.41c-.26.26-.41.61-.41.98s.15.72.41.98c.26.26.61.41.98.41Z"/>
  </g>
  <g class="cls-5">
    <path class="cls-30" d="M85.15,88.02c.37,0,.72-.15.98-.41.26-.26.41-.61.41-.98s-.15-.72-.41-.98-.61-.41-.98-.41-.72.15-.98.41-.41.61-.41.98.15.72.41.98c.26.26.61.41.98.41"/>
    <path class="cls-12" d="M85.15,88.02c.37,0,.72-.15.98-.41.26-.26.41-.61.41-.98s-.15-.72-.41-.98-.61-.41-.98-.41-.72.15-.98.41-.41.61-.41.98.15.72.41.98c.26.26.61.41.98.41Z"/>
  </g>
  <g class="cls-8">
    <path class="cls-30" d="M121.69,131.97c.37,0,.72-.15.98-.41s.41-.61.41-.98-.15-.72-.41-.98c-.26-.26-.61-.41-.98-.41s-.72.15-.98.41c-.26.26-.41.61-.41.98s.15.72.41.98.61.41.98.41"/>
    <path class="cls-12" d="M121.69,131.97c.37,0,.72-.15.98-.41s.41-.61.41-.98-.15-.72-.41-.98c-.26-.26-.61-.41-.98-.41s-.72.15-.98.41c-.26.26-.41.61-.41.98s.15.72.41.98.61.41.98.41Z"/>
  </g>
  <g class="cls-41">
    <path class="cls-30" d="M158.23,144.17c.37,0,.72-.15.98-.41.26-.26.41-.61.41-.98s-.15-.72-.41-.98c-.26-.26-.61-.41-.98-.41s-.72.15-.98.41c-.26.26-.41.61-.41.98s.15.72.41.98c.26.26.61.41.98.41"/>
    <path class="cls-12" d="M158.23,144.17c.37,0,.72-.15.98-.41.26-.26.41-.61.41-.98s-.15-.72-.41-.98c-.26-.26-.61-.41-.98-.41s-.72.15-.98.41c-.26.26-.41.61-.41.98s.15.72.41.98c.26.26.61.41.98.41Z"/>
  </g>
  <g class="cls-33">
    <path class="cls-30" d="M194.77,145.43c.37,0,.72-.15.98-.41.26-.26.41-.61.41-.98s-.15-.72-.41-.98c-.26-.26-.61-.41-.98-.41s-.72.15-.98.41c-.26.26-.41.61-.41.98s.15.72.41.98c.26.26.61.41.98.41"/>
    <path class="cls-12" d="M194.77,145.43c.37,0,.72-.15.98-.41.26-.26.41-.61.41-.98s-.15-.72-.41-.98c-.26-.26-.61-.41-.98-.41s-.72.15-.98.41c-.26.26-.41.61-.41.98s.15.72.41.98c.26.26.61.41.98.41Z"/>
  </g>
  <g class="cls-2">
    <path class="cls-30" d="M231.31,145.43c.37,0,.72-.15.98-.41.26-.26.41-.61.41-.98s-.15-.72-.41-.98c-.26-.26-.61-.41-.98-.41s-.72.15-.98.41c-.26.26-.41.61-.41.98s.15.72.41.98c.26.26.61.41.98.41"/>
    <path class="cls-12" d="M231.31,145.43c.37,0,.72-.15.98-.41.26-.26.41-.61.41-.98s-.15-.72-.41-.98c-.26-.26-.61-.41-.98-.41s-.72.15-.98.41c-.26.26-.41.61-.41.98s.15.72.41.98c.26.26.61.41.98.41Z"/>
  </g>
  <polyline class="cls-13" points="48.61 18.43 85.15 18.43 121.69 18.43 158.23 18.43 194.77 18.43 231.31 18.43"/>
  <g class="cls-10">
    <path class="cls-1" d="M48.61,19.82c.37,0,.72-.15.98-.41.26-.26.41-.61.41-.98s-.15-.72-.41-.98c-.26-.26-.61-.41-.98-.41s-.72.15-.98.41c-.26.26-.41.61-.41.98s.15.72.41.98c.26.26.61.41.98.41"/>
    <path class="cls-12" d="M48.61,19.82c.37,0,.72-.15.98-.41.26-.26.41-.61.41-.98s-.15-.72-.41-.98c-.26-.26-.61-.41-.98-.41s-.72.15-.98.41c-.26.26-.41.61-.41.98s.15.72.41.98c.26.26.61.41.98.41Z"/>
  </g>
  <g class="cls-19">
    <path class="cls-1" d="M85.15,19.82c.37,0,.72-.15.98-.41s.41-.61.41-.98-.15-.72-.41-.98c-.26-.26-.61-.41-.98-.41s-.72.15-.98.41c-.26.26-.41.61-.41.98s.15.72.41.98.61.41.98.41"/>
    <path class="cls-12" d="M85.15,19.82c.37,0,.72-.15.98-.41s.41-.61.41-.98-.15-.72-.41-.98c-.26-.26-.61-.41-.98-.41s-.72.15-.98.41c-.26.26-.41.61-.41.98s.15.72.41.98.61.41.98.41Z"/>
  </g>
  <g class="cls-49">
    <path class="cls-1" d="M121.69,19.82c.37,0,.72-.15.98-.41s.41-.61.41-.98-.15-.72-.41-.98c-.26-.26-.61-.41-.98-.41s-.72.15-.98.41c-.26.26-.41.61-.41.98s.15.72.41.98.61.41.98.41"/>
    <path class="cls-12" d="M121.69,19.82c.37,0,.72-.15.98-.41s.41-.61.41-.98-.15-.72-.41-.98c-.26-.26-.61-.41-.98-.41s-.72.15-.98.41c-.26.26-.41.61-.41.98s.15.72.41.98.61.41.98.41Z"/>
  </g>
  <g class="cls-26">
    <path class="cls-1" d="M158.23,19.82c.37,0,.72-.15.98-.41.26-.26.41-.61.41-.98s-.15-.72-.41-.98c-.26-.26-.61-.41-.98-.41s-.72.15-.98.41c-.26.26-.41.61-.41.98s.15.72.41.98c.26.26.61.41.98.41"/>
    <path class="cls-12" d="M158.23,19.82c.37,0,.72-.15.98-.41.26-.26.41-.61.41-.98s-.15-.72-.41-.98c-.26-.26-.61-.41-.98-.41s-.72.15-.98.41c-.26.26-.41.61-.41.98s.15.72.41.98c.26.26.61.41.98.41Z"/>
  </g>
  <g class="cls-36">
    <path class="cls-1" d="M194.77,19.82c.37,0,.72-.15.98-.41.26-.26.41-.61.41-.98s-.15-.72-.41-.98c-.26-.26-.61-.41-.98-.41s-.72.15-.98.41c-.26.26-.41.61-.41.98s.15.72.41.98c.26.26.61.41.98.41"/>
    <path class="cls-12" d="M194.77,19.82c.37,0,.72-.15.98-.41.26-.26.41-.61.41-.98s-.15-.72-.41-.98c-.26-.26-.61-.41-.98-.41s-.72.15-.98.41c-.26.26-.41.61-.41.98s.15.72.41.98c.26.26.61.41.98.41Z"/>
  </g>
  <g class="cls-27">
    <path class="cls-1" d="M231.31,19.82c.37,0,.72-.15.98-.41.26-.26.41-.61.41-.98s-.15-.72-.41-.98c-.26-.26-.61-.41-.98-.41s-.72.15-.98.41c-.26.26-.41.61-.41.98s.15.72.41.98c.26.26.61.41.98.41"/>
    <path class="cls-12" d="M231.31,19.82c.37,0,.72-.15.98-.41.26-.26.41-.61.41-.98s-.15-.72-.41-.98c-.26-.26-.61-.41-.98-.41s-.72.15-.98.41c-.26.26-.41.61-.41.98s.15.72.41.98c.26.26.61.41.98.41Z"/>
  </g>
  <line class="cls-16" x1="30.4" y1="144.04" x2="30.4" y2="12.15"/>
  <line class="cls-16" x1="249.52" y1="144.04" x2="249.52" y2="12.15"/>
  <line class="cls-16" x1="30.4" y1="144.04" x2="249.52" y2="144.04"/>
  <line class="cls-16" x1="30.4" y1="12.15" x2="249.52" y2="12.15"/>
  <text class="cls-21" transform="translate(106.44 160.6)"><tspan x="0" y="0">complexity level</tspan></text>
  <text class="cls-20" transform="translate(46.36 152.88)"><tspan x="0" y="0">1</tspan></text>
  <text class="cls-20" transform="translate(76.96 152.88)"><tspan x="0" y="0">2</tspan></text>
  <text class="cls-20" transform="translate(115.54 152.88)"><tspan x="0" y="0">3</tspan></text>
  <text class="cls-20" transform="translate(154.13 152.88)"><tspan x="0" y="0">4</tspan></text>
  <text class="cls-20" transform="translate(192.71 152.88)"><tspan x="0" y="0">5</tspan></text>
  <text class="cls-20" transform="translate(230.04 152.88)"><tspan x="0" y="0">6</tspan></text>
  <polyline class="cls-52" points="203.75 9.73 203.75 2.64 232.09 2.64 232.09 9.73"/>
  <g class="cls-29">
    <text class="cls-23" transform="translate(237.6 8.54)"><tspan x="0" y="0">B*</tspan></text>
    <text class="cls-23" transform="translate(170.08 8.54)"><tspan x="0" y="0">b-1000</tspan></text>
  </g>
  <polyline class="cls-50" points="135.19 9.73 135.19 2.64 163.54 2.64 163.54 9.73"/>
  <g class="cls-45">
    <text class="cls-23" transform="translate(106.02 8.54)"><tspan x="0" y="0">b-100</tspan></text>
  </g>
  <polyline class="cls-46" points="71.13 9.73 71.13 2.64 99.48 2.64 99.48 9.73"/>
  <g class="cls-40">
    <text class="cls-23" transform="translate(46.46 8.54)"><tspan x="0" y="0">b-10</tspan></text>
  </g>
  <polyline class="cls-47" points="11.58 9.73 11.58 2.64 39.92 2.64 39.92 9.73"/>
  <text class="cls-22" transform="translate(19.75 146.4)"><tspan x="0" y="0">0</tspan></text>
  <text class="cls-22" transform="translate(15.25 121.28)"><tspan x="0" y="0">20</tspan></text>
  <text class="cls-22" transform="translate(15.25 96.16)"><tspan x="0" y="0">40</tspan></text>
  <text class="cls-22" transform="translate(13 71.04)"><tspan x="0" y="0" xml:space="preserve"> 60</tspan></text>
  <text class="cls-22" transform="translate(10.75 45.93)"><tspan x="0" y="0" xml:space="preserve">  80</tspan></text>
  <text class="cls-22" transform="translate(10.75 20.81)"><tspan x="0" y="0">100</tspan></text>
  <g class="cls-6">
    <text class="cls-22" transform="translate(9.67 110.44) rotate(-90)"><tspan x="0" y="0">success rate (%)</tspan></text>
  </g>
</svg>